<svg xmlns="http://www.w3.org/2000/svg" style="display:none">
  <symbol id="spa" viewBox="0 0 24 24" fill="none" stroke="currentColor" stroke-width="1.5" stroke-linecap="round" stroke-linejoin="round"><path d="M12 3c-4 4-4 10 0 14"/><path d="M12 3c4 4 4 10 0 14"/><path d="M4 12c4 2 12 2 16 0"/></symbol>
  <symbol id="body" viewBox="0 0 24 24" fill="none" stroke="currentColor" stroke-width="1.5" stroke-linecap="round" stroke-linejoin="round"><circle cx="12" cy="7" r="3"/><path d="M8 21v-6a4 4 0 0 1 8 0v6"/></symbol>
  <symbol id="stone" viewBox="0 0 24 24" fill="none" stroke="currentColor" stroke-width="1.5" stroke-linecap="round" stroke-linejoin="round"><ellipse cx="12" cy="18" rx="7" ry="3"/><ellipse cx="12" cy="13" rx="5" ry="2.5"/><ellipse cx="12" cy="9" rx="3" ry="1.5"/></symbol>
  <symbol id="fire-stone" viewBox="0 0 24 24" fill="none" stroke="currentColor" stroke-width="1.5" stroke-linecap="round" stroke-linejoin="round"><ellipse cx="12" cy="19" rx="6" ry="2.5"/><ellipse cx="12" cy="15" rx="4" ry="2"/><ellipse cx="12" cy="11" rx="2.5" ry="1.5"/><path d="M12 5c-1 2-1 4 0 5.5"/></symbol>
  <symbol id="aroma" viewBox="0 0 24 24" fill="none" stroke="currentColor" stroke-width="1.5" stroke-linecap="round" stroke-linejoin="round"><path d="M12 21c-3-3-3-7 0-10"/><path d="M12 21c3-3 3-7 0-10"/><path d="M12 11c-2-2-2-5 0-7"/><path d="M12 11c2-2 2-5 0-7"/></symbol>
  <symbol id="leaf" viewBox="0 0 24 24" fill="none" stroke="currentColor" stroke-width="1.5" stroke-linecap="round" stroke-linejoin="round"><path d="M12 22V8"/><path d="M12 8C7 8 4 5 4 2c4 2 6 4 8 6 2-2 4-4 8-6 0 3-3 6-8 6Z"/></symbol>
  <symbol id="candy" viewBox="0 0 24 24" fill="none" stroke="currentColor" stroke-width="1.5" stroke-linecap="round" stroke-linejoin="round"><circle cx="12" cy="12" r="5"/><path d="M5 12H2m17 0h3"/></symbol>
  <symbol id="tea" viewBox="0 0 24 24" fill="none" stroke="currentColor" stroke-width="1.5" stroke-linecap="round" stroke-linejoin="round"><path d="M6 8v8a4 4 0 0 0 8 0V8"/><path d="M18 10h2a2 2 0 0 1 0 4h-2"/><path d="M10 5c0-1 1-2 2-2s2 1 2 2"/></symbol>
  <symbol id="lemon" viewBox="0 0 24 24" fill="none" stroke="currentColor" stroke-width="1.5" stroke-linecap="round" stroke-linejoin="round"><circle cx="12" cy="12" r="7"/><path d="M5 12h14"/></symbol>
  <symbol id="mango" viewBox="0 0 24 24" fill="none" stroke="currentColor" stroke-width="1.5" stroke-linecap="round" stroke-linejoin="round"><path d="M12 4c-4 0-7 4-7 8s3 7 7 7 7-3 7-7-3-8-7-8Z"/><path d="M12 4v-2"/></symbol>
  <symbol id="almond" viewBox="0 0 24 24" fill="none" stroke="currentColor" stroke-width="1.5" stroke-linecap="round" stroke-linejoin="round"><ellipse cx="12" cy="14" rx="5" ry="7"/><path d="M12 7v-2"/></symbol>
  <symbol id="lavender" viewBox="0 0 24 24" fill="none" stroke="currentColor" stroke-width="1.5" stroke-linecap="round" stroke-linejoin="round"><path d="M12 22V10"/><circle cx="12" cy="8" r="2"/><circle cx="12" cy="14" r="2"/></symbol>
  <symbol id="check" viewBox="0 0 24 24" fill="none" stroke="currentColor" stroke-width="1.5" stroke-linecap="round" stroke-linejoin="round"><path d="M20 6L9 17l-5-5"/></symbol>
  <symbol id="gift" viewBox="0 0 24 24" fill="none" stroke="currentColor" stroke-width="1.5" stroke-linecap="round" stroke-linejoin="round"><rect x="3" y="8" width="18" height="13" rx="2"/><path d="M12 8v13"/><path d="M3 8c0-2 2-3 4.5-3S12 6 12 8s-1.5 3-4.5 3S3 10 3 8Z"/><path d="M21 8c0-2-2-3-4.5-3S12 6 12 8s1.5 3 4.5 3S21 10 21 8Z"/></symbol>
  <symbol id="pin" viewBox="0 0 24 24" fill="none" stroke="currentColor" stroke-width="1.5" stroke-linecap="round" stroke-linejoin="round"><path d="M21 10c0 7-9 13-9 13S3 17 3 10a9 9 0 1 1 18 0Z"/><circle cx="12" cy="10" r="2"/></symbol>
  <symbol id="phone" viewBox="0 0 24 24" fill="none" stroke="currentColor" stroke-width="1.5" stroke-linecap="round" stroke-linejoin="round"><path d="M22 16.92v3a2 2 0 0 1-2.18 2A19.8 19.8 0 0 1 4.11 4.11 2 2 0 0 1 6 2h3a2 2 0 0 1 2 1.72c.12.9.36 1.77.7 2.6a2 2 0 0 1-.45 2.1l-1.27 1.28a16 16 0 0 0 6 6l1.28-1.27a2 2 0 0 1 2.1-.45c.83.34 1.7.58 2.6.7A2 2 0 0 1 22 16.92Z"/></symbol>
  <symbol id="mail" viewBox="0 0 24 24" fill="none" stroke="currentColor" stroke-width="1.5" stroke-linecap="round" stroke-linejoin="round"><rect x="2" y="5" width="20" height="14" rx="2"/><path d="M2 5l10 7 10-7"/></symbol>
  <symbol id="clock" viewBox="0 0 24 24" fill="none" stroke="currentColor" stroke-width="1.5" stroke-linecap="round" stroke-linejoin="round"><circle cx="12" cy="12" r="10"/><path d="M12 6v6l4 2"/></symbol>
</svg>
